<svg xmlns="http://www.w3.org/2000/svg" viewBox="0 0 160 32" fill="none">
  <rect width="32" height="32" rx="8" fill="#0A0A0B"/>
  <path d="M11 13.2C11 11 13 9.5 16 9.5C18.6 9.5 20.4 10.7 21 12.6L18.3 13.4C18 12.5 17.2 11.9 16 11.9C14.8 11.9 14 12.4 14 13.1C14 13.7 14.5 14.1 15.6 14.4L17.6 14.9C20 15.5 21.3 16.7 21.3 18.7C21.3 21 19.2 22.6 16.1 22.6C13.2 22.6 11.2 21.3 10.6 19.1L13.4 18.3C13.7 19.4 14.6 20.1 16.1 20.1C17.5 20.1 18.3 19.6 18.3 18.8C18.3 18.2 17.8 17.8 16.6 17.5L14.6 17C12.3 16.4 11 15.2 11 13.2Z" fill="#FCFCFB"/>
  <text x="42" y="22" font-family="Georgia, serif" font-size="18" fill="#0A0A0B">SamSec</text>
</svg>
